<?xml version="1.0" encoding="UTF-8"?>
<svg width="24" height="24" version="1.1" viewBox="0 0 6.35 6.35" xmlns="http://www.w3.org/2000/svg">
<path d="m2.2472 0.88548c-0.06351 0.22579-0.09525 0.46215-0.09525 0.70202 0 1.4393 1.1712 2.6105 2.6106 2.6105 0.23989 0 0.47625-0.0317 0.70203-0.0952-0.36689 0.90311-1.2559 1.5416-2.2895 1.5416-1.3617 0-2.4694-1.1077-2.4694-2.4694 0-1.0336 0.63853-1.9226 1.5416-2.2895zm0.9278-0.88546c-1.7533 0-3.175 1.4217-3.175 3.175 0 1.7533 1.4217 3.175 3.175 3.175s3.175-1.4217 3.175-3.175c0-0.16228-0.01411-0.32456-0.03528-0.47977-0.34572 0.4833-0.91017 0.79726-1.5522 0.79726-1.0513 0-1.905-0.85372-1.905-1.905 0-0.63851 0.31397-1.2065 0.79728-1.5522-0.15522-0.0212-0.3175-0.0353-0.47978-0.0353z" fill="#fff" stroke-width=".35278"/>
</svg>

