<?xml version="1.0" encoding="UTF-8" standalone="no"?>
<!-- Created with Inkscape (http://www.inkscape.org/) -->

<svg
   width="24"
   height="24"
   viewBox="0 0 6.3499999 6.3500002"
   version="1.1"
   id="svg5"
   inkscape:version="1.1.2 (0a00cf5339, 2022-02-04)"
   sodipodi:docname="logo.svg"
   xmlns:inkscape="http://www.inkscape.org/namespaces/inkscape"
   xmlns:sodipodi="http://sodipodi.sourceforge.net/DTD/sodipodi-0.dtd"
   xmlns="http://www.w3.org/2000/svg"
   xmlns:svg="http://www.w3.org/2000/svg">
  <sodipodi:namedview
     id="namedview7"
     pagecolor="#ffffff"
     bordercolor="#666666"
     borderopacity="1.0"
     inkscape:pageshadow="2"
     inkscape:pageopacity="0.0"
     inkscape:pagecheckerboard="0"
     inkscape:document-units="mm"
     showgrid="false"
     units="px"
     inkscape:zoom="5.095679"
     inkscape:cx="-19.820715"
     inkscape:cy="31.006663"
     inkscape:window-width="1920"
     inkscape:window-height="1131"
     inkscape:window-x="0"
     inkscape:window-y="0"
     inkscape:window-maximized="1"
     inkscape:current-layer="layer1" />
  <defs
     id="defs2" />
  <g
     inkscape:label="Layer 1"
     inkscape:groupmode="layer"
     id="layer1">
    <g
       aria-label="G"
       id="text11320"
       style="font-size:10.5833px;line-height:1.25;font-family:Montserrat;-inkscape-font-specification:Montserrat;stroke-width:0.264583;fill:#ffffff;fill-opacity:1"
       transform="translate(-62.703877,-94.240623)">
      <path
         d="m 65.931355,100.59062 c -0.466483,0 -0.897979,-0.0773 -1.29449,-0.23187 -0.39068,-0.16054 -0.731795,-0.3835 -1.023347,-0.668897 -0.28572,-0.285397 -0.510215,-0.621326 -0.673484,-1.007795 -0.157438,-0.386471 -0.236157,-0.808615 -0.236157,-1.266434 0,-0.457818 0.07872,-0.879963 0.236157,-1.266433 0.163269,-0.38647 0.390679,-0.722402 0.682231,-1.007795 0.291552,-0.285393 0.632667,-0.505384 1.023346,-0.659972 0.396511,-0.160534 0.828007,-0.240801 1.294491,-0.240801 0.466483,0 0.892148,0.07432 1.276996,0.222964 0.39068,0.148642 0.723049,0.374578 0.997107,0.677809 l -0.402341,0.419172 c -0.256565,-0.261611 -0.539371,-0.4489 -0.848416,-0.561868 -0.309045,-0.112969 -0.641414,-0.169453 -0.997107,-0.169453 -0.379017,0 -0.728879,0.0654 -1.049586,0.196208 -0.314876,0.12486 -0.59185,0.306204 -0.830923,0.544031 -0.233241,0.231882 -0.416919,0.505385 -0.551033,0.820506 -0.128282,0.309176 -0.192424,0.651053 -0.192424,1.025632 0,0.368633 0.06414,0.710511 0.192424,1.025632 0.134114,0.315122 0.317792,0.591596 0.551033,0.829421 0.239073,0.231886 0.516047,0.413227 0.830923,0.544039 0.320707,0.124854 0.667653,0.187284 1.040839,0.187284 0.349862,0 1.553974,-0.05351 1.863018,-0.160528 0.314877,-0.107023 0.603513,-0.288372 0.865909,-0.544039 l 0.367356,0.499443 c -0.291551,0.261604 -0.632667,0.460784 -1.023347,0.597544 -0.390679,0.1308 -1.67351,0.1962 -2.099175,0.1962 z m 2.501516,-0.874011 v -2.300985 h 0.621006 v 2.381252 z"
         id="path19344"
         sodipodi:nodetypes="scccscscscccsscccscccsccccsccccc"
         style="stroke-width:0.220803;fill:#ffffff;fill-opacity:1" />
    </g>
  </g>
</svg>
