<?xml version="1.0" encoding="UTF-8"?>
<svg width="24" height="24" version="1.1" viewBox="0 0 6.35 6.35" xmlns="http://www.w3.org/2000/svg">
<g transform="translate(-62.704 -94.241)" fill="#fff" stroke-width=".26458" aria-label="G">
<path d="m65.931 100.59c-0.46648 0-0.89798-0.0773-1.2945-0.23187-0.39068-0.16054-0.7318-0.3835-1.0233-0.6689-0.28572-0.2854-0.51022-0.62133-0.67348-1.0078-0.15744-0.38647-0.23616-0.80862-0.23616-1.2664 0-0.45782 0.07872-0.87996 0.23616-1.2664 0.16327-0.38647 0.39068-0.7224 0.68223-1.0078s0.63267-0.50538 1.0233-0.65997c0.39651-0.16053 0.82801-0.2408 1.2945-0.2408 0.46648 0 0.89215 0.07432 1.277 0.22296 0.39068 0.14864 0.72305 0.37458 0.99711 0.67781l-0.40234 0.41917c-0.25656-0.26161-0.53937-0.4489-0.84842-0.56187-0.30904-0.11297-0.64141-0.16945-0.99711-0.16945-0.37902 0-0.72888 0.0654-1.0496 0.19621-0.31488 0.12486-0.59185 0.3062-0.83092 0.54403-0.23324 0.23188-0.41692 0.50538-0.55103 0.82051-0.12828 0.30918-0.19242 0.65105-0.19242 1.0256 0 0.36863 0.06414 0.71051 0.19242 1.0256 0.13411 0.31512 0.31779 0.5916 0.55103 0.82942 0.23907 0.23189 0.51605 0.41323 0.83092 0.54404 0.32071 0.12485 0.66765 0.18728 1.0408 0.18728 0.34986 0 1.554-0.05351 1.863-0.16053 0.31488-0.10702 0.60351-0.28837 0.86591-0.54404l0.36736 0.49944c-0.29155 0.2616-0.63267 0.46078-1.0233 0.59754-0.39068 0.1308-1.6735 0.1962-2.0992 0.1962zm2.5015-0.87401v-2.301h0.62101v2.3813z" fill="#fff" stroke-width=".2208"/>
</g>
</svg>
